<svg  viewBox="0 0 206 44" fill="none" xmlns="http://www.w3.org/2000/svg">
<path d="M50.2189 14.1919V28.0802H47.515V19.07L43.6406 25.5087H43.3234L39.4477 19.0884V28.0802H36.6953V14.1919H39.5002L43.4624 20.736L47.4128 14.1919H50.2189Z" fill="black"/>
<path d="M57.2822 28.3543C56.0653 28.3962 54.8632 28.0752 53.8272 27.4317C52.9103 26.841 52.2152 25.9598 51.8521 24.9274L54.1798 23.5606C54.3998 24.2222 54.834 24.7906 55.413 25.1748C55.9921 25.5591 56.6825 25.7369 57.374 25.68C57.963 25.7269 58.5515 25.5813 59.0516 25.2648C59.3286 25.0582 59.5128 24.7496 59.5637 24.4065C59.6146 24.0635 59.528 23.7142 59.3229 23.4354C59.2173 23.2924 59.0835 23.1731 58.9297 23.0848C58.1953 22.694 57.4157 22.396 56.6085 22.1977C56.0741 22.0438 55.5489 21.8589 55.0357 21.6441C54.5845 21.45 54.1559 21.2065 53.7578 20.9179C53.3232 20.607 52.9789 20.1852 52.7604 19.696C52.5276 19.173 52.4139 18.6042 52.4274 18.0313C52.4068 17.463 52.516 16.8974 52.7466 16.378C52.9773 15.8587 53.3232 15.3994 53.7578 15.0354C54.6509 14.2722 55.7892 13.861 56.9611 13.8782C58.0032 13.8561 59.0289 14.1416 59.9114 14.6993C60.7709 15.2624 61.4569 16.0559 61.8919 16.9901L59.6021 18.3187C59.4003 17.7817 59.0375 17.321 58.5638 17.0006C58.0902 16.6801 57.5292 16.5157 56.9585 16.5301C56.4842 16.5021 56.0147 16.6384 55.6281 16.9163C55.4738 17.0326 55.3493 17.1843 55.2649 17.3588C55.1806 17.5332 55.1388 17.7254 55.1432 17.9193C55.1395 18.1273 55.187 18.333 55.2814 18.5181C55.3759 18.7032 55.5143 18.862 55.6845 18.9803C56.3304 19.3796 57.0325 19.6787 57.7672 19.8674L58.7213 20.1732C58.9389 20.2461 59.2356 20.3577 59.6113 20.508C59.9128 20.624 60.2032 20.7674 60.479 20.9363C60.7311 21.0995 60.9724 21.2791 61.2011 21.4741C61.4417 21.6793 61.6448 21.925 61.8014 22.2003C62.1357 22.8001 62.31 23.4767 62.3074 24.1642C62.3299 24.7468 62.216 25.3266 61.9749 25.8568C61.7339 26.387 61.3723 26.8529 60.9193 27.2169C59.8772 28.0134 58.5897 28.4161 57.2822 28.3543V28.3543Z" fill="black"/>
<path d="M71.5475 28.0802L68.7584 23.2601H66.6901V28.0802H63.9705V14.1919H69.4937C70.7092 14.1887 71.8763 14.6708 72.7386 15.5323C73.6009 16.3938 74.088 17.5642 74.0929 18.7866V18.7945C74.0972 19.6465 73.8455 20.4799 73.3707 21.1854C72.8963 21.9104 72.2273 22.4853 71.4413 22.8436L74.4992 28.0854L71.5475 28.0802ZM66.6901 16.7449V20.8533H69.495C69.7453 20.8546 69.9929 20.8013 70.2208 20.6971C70.4486 20.5929 70.6513 20.4402 70.8148 20.2496C71.1775 19.856 71.3743 19.3363 71.364 18.7998C71.3779 18.2626 71.1806 17.7416 70.8148 17.3499C70.6497 17.1611 70.4462 17.0101 70.218 16.9071C69.9899 16.8041 69.7424 16.7515 69.4924 16.7528L66.6901 16.7449Z" fill="black"/>
<path d="M17.0928 0.486764C17.7385 0.304093 18.3952 0.163213 19.0588 0.0649872V0.0649872L16.0062 0.923039C15.8109 0.973125 15.8044 0.966534 15.7821 0.923039C16.197 0.717069 16.6336 0.558358 17.0836 0.449858L17.0928 0.486764ZM14.4111 1.70069C13.6876 2.07106 13.3691 2.37685 13.5211 2.42694C13.8462 2.51393 16.2251 1.19192 16.3771 0.977079C15.7041 1.13093 15.0547 1.37521 14.4465 1.70333L14.4111 1.70069ZM12.7111 3.45633C12.0728 4.01651 11.989 4.40138 12.3717 4.40138C13.2027 4.42378 14.9812 2.75118 14.7204 2.47439C14.6806 2.45989 14.637 2.45989 14.5972 2.47439C13.8969 2.65262 13.2512 3.00216 12.7177 3.49192L12.7111 3.45633ZM12.1371 5.72206C11.66 6.44963 11.8749 6.98739 12.5644 6.84109C13.6994 6.60384 14.7322 4.94705 14.2525 4.53582C14.1814 4.46722 14.0887 4.42574 13.9904 4.41851C13.6134 4.49459 13.2553 4.64573 12.9373 4.86303C12.6192 5.08033 12.3476 5.35941 12.1384 5.68384L12.1371 5.72206ZM12.7321 8.33708C12.3769 9.35461 13.1515 9.98069 14.1739 9.47851C15.4321 8.87221 15.7296 7.22201 14.9078 6.90831C14.8075 6.87535 14.7028 6.85802 14.5972 6.85691C14.1854 6.914 13.797 7.08299 13.4736 7.34567C13.1503 7.60836 12.9043 7.95478 12.7623 8.34762L12.7321 8.33708ZM14.4753 11.3726C14.301 12.6577 15.6549 13.3009 16.7821 12.4639C17.9093 11.6269 17.7442 9.82779 16.4427 9.69599H16.305C15.8545 9.72702 15.4278 9.91075 15.0945 10.2172C14.7612 10.5236 14.5411 10.9346 14.4701 11.3831L14.4753 11.3726ZM17.1675 14.7204C17.1884 15.0533 17.3056 15.3728 17.5046 15.6397C17.7035 15.9067 17.9756 16.1094 18.2875 16.223C18.5994 16.3367 18.9374 16.3563 19.2602 16.2795C19.583 16.2027 19.8765 16.0328 20.1047 15.7907C20.3556 15.5683 20.5333 15.2744 20.6141 14.948C20.6949 14.6216 20.675 14.2783 20.557 13.9635C20.4391 13.6488 20.2287 13.3776 19.9538 13.186C19.679 12.9944 19.3526 12.8915 19.0181 12.8909C18.5335 12.8997 18.0709 13.0966 17.7274 13.4406C17.3839 13.7846 17.1861 14.2489 17.1753 14.7362L17.1675 14.7204ZM20.6303 18.3345C20.6808 18.706 20.8372 19.0548 21.0806 19.3388C21.3241 19.6228 21.644 19.8299 22.0019 19.935C22.3598 20.0401 22.7403 20.0387 23.0974 19.931C23.4546 19.8234 23.7731 19.6141 24.0145 19.3283C24.2344 19.054 24.3709 18.7217 24.4078 18.3712C24.4446 18.0208 24.3802 17.6671 24.2222 17.3526C24.0642 17.0381 23.8194 16.776 23.5171 16.5979C23.2147 16.4197 22.8677 16.333 22.5177 16.3482C22.029 16.3354 21.5552 16.5183 21.2006 16.8567C20.8459 17.1951 20.6394 17.6612 20.6264 18.1526C20.6264 18.2132 20.6264 18.2739 20.6264 18.3345H20.6303ZM24.4876 22.145C24.5334 22.5003 24.6798 22.8349 24.9094 23.109C25.139 23.383 25.442 23.5849 25.7825 23.6906C26.123 23.7963 26.4865 23.8013 26.8297 23.7051C27.1729 23.6089 27.4814 23.4156 27.7184 23.148C27.921 22.91 28.0616 22.6252 28.1276 22.319C28.1935 22.0128 28.1828 21.695 28.0962 21.394C28.0097 21.093 27.8502 20.8184 27.632 20.5949C27.4138 20.3713 27.1437 20.2058 26.8461 20.1132C26.5485 20.0206 26.2327 20.0039 25.927 20.0645C25.6214 20.1251 25.3355 20.2611 25.0952 20.4604C24.8548 20.6597 24.6674 20.9159 24.5499 21.206C24.4324 21.4962 24.3885 21.8111 24.4221 22.1226L24.4876 22.145ZM15.4308 0.90195L15.2067 0.982351C15.8712 0.829457 16.5082 0.586936 17.1727 0.422179C17.7219 0.283784 18.2566 0.19811 18.7848 0.0808038L18.5227 0.124299C17.4766 0.308767 16.4451 0.568654 15.4361 0.90195H15.4308ZM13.4478 1.72441C12.9964 1.91821 12.5678 2.16178 12.1698 2.45066V2.45066C12.3795 2.45066 15.3587 1.0008 15.3797 1.0008C14.715 1.18878 14.067 1.43214 13.4425 1.72837L13.4478 1.72441ZM10.8107 3.46029C10.0885 3.9796 9.79619 4.34734 9.92726 4.40401C10.2025 4.5055 12.7688 2.75381 12.7544 2.46252H12.7111C12.0275 2.69775 11.3859 3.04174 10.8107 3.48138V3.46029ZM9.12643 5.6957C8.56153 6.32046 8.40294 6.83714 8.78566 6.83714C9.59566 6.83714 11.3965 4.78757 11.1292 4.47387C11.0924 4.44348 11.0456 4.42797 10.9981 4.43037C10.2689 4.66809 9.62056 5.10642 9.12643 5.6957ZM8.54056 8.34894C8.07003 9.19249 8.26532 9.7988 8.95211 9.63536C10.1724 9.33748 11.2222 7.27868 10.6075 6.90831C10.5401 6.87534 10.4662 6.85821 10.3912 6.85822C9.99543 6.96043 9.62574 7.14607 9.30668 7.40285C8.98762 7.65962 8.72647 7.98166 8.54056 8.34762V8.34894ZM9.12119 11.3791C8.78172 12.5061 9.54061 13.1967 10.5236 12.6524C11.7596 11.9683 12.1869 9.99782 11.1672 9.74476C11.0952 9.73816 11.0228 9.73816 10.9509 9.74476C10.5193 9.8262 10.119 10.0271 9.79478 10.325C9.4706 10.6228 9.23551 11.0057 9.11595 11.4305L9.12119 11.3791ZM10.8015 14.7679C10.7428 15.0511 10.7776 15.3459 10.9006 15.6075C11.0236 15.8691 11.2281 16.0833 11.483 16.2174C11.738 16.3516 12.0295 16.3984 12.3133 16.3509C12.5972 16.3034 12.8579 16.1641 13.0559 15.9541C14.2276 14.9946 14.0389 13.0465 12.7531 12.9226H12.622C12.1564 12.9777 11.7232 13.1903 11.3935 13.5256C11.0639 13.8609 10.8575 14.299 10.808 14.7679H10.8015ZM13.453 18.3675C13.4441 18.7044 13.5385 19.036 13.7233 19.3172C13.9081 19.5984 14.1745 19.8157 14.4862 19.9396C14.798 20.0634 15.14 20.0879 15.4661 20.0097C15.7921 19.9315 16.0864 19.7543 16.309 19.5023C17.3431 18.4399 16.9158 16.4629 15.2683 16.3825C14.7688 16.4127 14.3005 16.6366 13.9619 17.0071C13.6233 17.3776 13.4409 17.8657 13.453 18.3688V18.3675ZM16.8228 22.1793C16.8453 22.5531 16.9804 22.9112 17.2102 23.2059C17.44 23.5007 17.7535 23.7182 18.1091 23.8295C18.4647 23.9408 18.8456 23.9406 19.2011 23.829C19.5566 23.7174 19.8699 23.4997 20.0995 23.2047C20.3218 22.9257 20.4622 22.5897 20.5048 22.2347C20.5474 21.8798 20.4906 21.5199 20.3407 21.1956C20.1908 20.8714 19.9538 20.5957 19.6564 20.3997C19.3591 20.2037 19.0132 20.0951 18.6577 20.0862C18.4127 20.0881 18.1705 20.1385 17.9449 20.2346C17.7194 20.3308 17.5148 20.4706 17.3431 20.6463C17.1713 20.822 17.0357 21.03 16.9439 21.2584C16.8522 21.4869 16.8061 21.7312 16.8083 21.9776C16.8088 22.0455 16.8132 22.1132 16.8214 22.1806L16.8228 22.1793ZM20.587 25.9818C20.6459 26.3438 20.8059 26.6814 21.0484 26.9553C21.2909 27.2293 21.6058 27.4282 21.9565 27.5289C22.3071 27.6297 22.679 27.628 23.0288 27.5242C23.3786 27.4204 23.6918 27.2187 23.9319 26.9427C24.1585 26.6713 24.3027 26.3399 24.347 25.9883C24.3914 25.6367 24.3341 25.2797 24.182 24.9599C24.03 24.6402 23.7895 24.3712 23.4895 24.1853C23.1895 23.9993 22.8425 23.9041 22.4901 23.9112C21.9971 23.9009 21.5201 24.088 21.1642 24.4314C20.8083 24.7747 20.6026 25.2461 20.5923 25.7419C20.591 25.8141 20.5936 25.8863 20.6001 25.9581L20.587 25.9818ZM9.08056 4.25244C9.02824 4.30719 8.98004 4.36578 8.93639 4.42774C9.04517 4.39215 11.9156 2.48757 11.9221 2.47307L11.6836 2.59696C10.7788 3.088 9.90907 3.64159 9.08056 4.25375V4.25244ZM7.54182 5.70361C6.81833 6.36264 6.52211 6.83845 6.67415 6.84636C6.96512 6.84636 9.34663 4.66499 9.24833 4.4396C8.61939 4.7651 8.04778 5.1921 7.55624 5.70361H7.54182ZM5.82876 8.33576C5.28614 9.10682 5.14852 9.71708 5.53124 9.64459C6.25473 9.51278 7.97566 7.17324 7.58507 6.87668C7.55882 6.87009 7.53137 6.87009 7.50512 6.87668C7.0857 6.92017 6.30454 7.68332 5.82876 8.36608V8.33576ZM5.22847 11.3897C4.79332 12.3835 5.03318 13.0768 5.70556 12.7855C6.76065 12.3268 7.75153 10.0453 7.0359 9.73158C6.98762 9.72499 6.93869 9.72499 6.89041 9.73158C6.2259 9.79089 5.51682 10.7504 5.22847 11.4187V11.3897ZM5.79206 14.756C5.52993 15.9923 6.2259 16.7265 7.11454 16.1373C8.32299 15.3438 8.61658 13.0794 7.5274 12.912H7.43697C6.57585 12.97 5.99522 14.0311 5.80255 14.7573L5.79206 14.756ZM7.49464 18.2989C7.41862 19.754 8.66245 20.4842 9.66512 19.5616C10.6678 18.639 10.5551 16.3983 9.14085 16.3126C8.05037 16.3706 7.49988 17.512 7.49988 18.2989H7.49464ZM10.1396 22.1094C10.2628 23.7227 11.8815 24.4279 12.8435 23.2772C13.8056 22.1265 13.2839 20.1007 11.7294 20.0124C11.49 20.0422 11.2588 20.1192 11.049 20.239C10.8392 20.3588 10.655 20.519 10.5068 20.7105C10.3586 20.9019 10.2495 21.1209 10.1856 21.3548C10.1217 21.5888 10.1043 21.8331 10.1343 22.0738C10.1336 22.0848 10.1336 22.0958 10.1343 22.1068L10.1396 22.1094ZM13.4661 25.912C13.7191 27.5121 15.6353 28.0934 16.5396 26.886C16.7324 26.6028 16.8468 26.2731 16.8711 25.9307C16.8954 25.5883 16.8287 25.2456 16.6778 24.9378C16.5269 24.6299 16.2973 24.3679 16.0125 24.1787C15.7278 23.9895 15.3981 23.8799 15.0573 23.8611C14.8122 23.8714 14.5722 23.9352 14.3542 24.0481C14.1361 24.161 13.945 24.3204 13.7944 24.515C13.6437 24.7097 13.537 24.935 13.4817 25.1754C13.4263 25.4157 13.4237 25.6653 13.474 25.9067L13.4661 25.912ZM17.1609 29.4984C17.195 29.8422 17.329 30.1683 17.5463 30.436C17.7635 30.7036 18.0544 30.901 18.3825 31.0034C18.7107 31.1058 19.0615 31.1087 19.3913 31.0118C19.7211 30.9148 20.0152 30.7223 20.2368 30.4583C20.4584 30.1943 20.5978 29.8705 20.6375 29.5273C20.6772 29.1841 20.6154 28.8367 20.46 28.5286C20.3045 28.2205 20.0622 27.9652 19.7634 27.7948C19.4645 27.6243 19.1224 27.5461 18.7796 27.5701C18.355 27.5595 17.9435 27.7186 17.6354 28.0126C17.3273 28.3067 17.1477 28.7116 17.136 29.1386C17.1324 29.2593 17.1425 29.38 17.1662 29.4984H17.1609ZM4.14322 9.44424C4.09582 9.50611 4.05743 9.57446 4.02919 9.64722C4.81453 8.75468 5.55469 7.82296 6.24687 6.85559V6.85559C6.24687 6.85559 6.2023 6.85559 6.05158 7.03748C5.36046 7.79403 4.72279 8.59824 4.14322 9.44424V9.44424ZM3.15497 11.3633C2.69885 12.2359 2.54026 12.8975 2.80109 12.8132C3.3424 12.6458 4.8392 9.86206 4.48531 9.68017C4.19434 9.73026 3.58881 10.6028 3.18381 11.3673L3.15497 11.3633ZM2.55337 14.7046C2.22701 15.8025 2.41575 16.5367 2.94657 16.2164C3.79852 15.6892 4.56526 13.0241 3.87847 12.8501C3.35419 12.9081 2.80109 13.9691 2.58482 14.6954L2.55337 14.7046ZM3.14842 18.295C3.01735 19.5959 3.65434 20.3814 4.35555 19.7448C5.27303 18.9448 5.4775 16.3864 4.41454 16.2915C3.69104 16.3574 3.23492 17.4909 3.14842 18.2778V18.295ZM4.8156 22.1015C4.89556 23.5513 5.92968 24.2829 6.68857 23.5197C7.59949 22.5852 7.34391 20.1099 6.03323 20.0084C5.11575 20.0743 4.76711 21.2738 4.81298 22.1028L4.8156 22.1015ZM7.48546 25.9054C7.76726 27.4172 9.24964 28.0868 9.96527 27.0152C10.6809 25.9436 10.0518 23.9468 8.66376 23.8598C7.6008 23.9257 7.33342 25.0961 7.48415 25.9054H7.48546ZM10.8172 29.4971C11.2288 31.0023 12.9497 31.5611 13.6063 30.4052C13.7374 30.1149 13.798 29.7974 13.7832 29.4788C13.7684 29.1603 13.6786 28.8499 13.5212 28.5731C13.3638 28.2963 13.1433 28.061 12.8778 27.8866C12.6124 27.7122 12.3095 27.6038 11.9942 27.5701C11.7757 27.5875 11.5643 27.6567 11.3775 27.772C11.1906 27.8874 11.0336 28.0456 10.9193 28.2337C10.805 28.4219 10.7366 28.6345 10.7198 28.8544C10.703 29.0742 10.7381 29.2949 10.8225 29.4984L10.8172 29.4971ZM14.4373 32.8278C14.8934 34.2776 16.7297 34.7324 17.3287 33.5554C17.4344 33.2791 17.4716 32.9811 17.4373 32.6872C17.4029 32.3932 17.2979 32.1121 17.1313 31.868C16.9647 31.624 16.7416 31.4244 16.4812 31.2864C16.2208 31.1484 15.9309 31.0762 15.6366 31.0761C15.2993 31.0712 14.9738 31.2011 14.7317 31.4374C14.4896 31.6737 14.3507 31.9969 14.3456 32.3362C14.3433 32.5124 14.3767 32.6873 14.4439 32.8502L14.4373 32.8278ZM1.07492 16.0595C1.0501 16.1375 1.03814 16.2189 1.03953 16.3007V16.3007C1.56532 15.2063 1.97012 14.0571 2.24667 12.8738C2.20997 12.9094 2.19555 12.9239 2.10905 13.1071C1.69581 14.065 1.35067 15.0512 1.07623 16.0582L1.07492 16.0595ZM0.814094 18.2989C0.647637 19.3823 0.755113 20.1613 1.04608 19.9504C1.47992 19.6381 2.17327 16.4391 1.58871 16.3152C1.25579 16.3798 0.933366 17.5147 0.821958 18.3015L0.814094 18.2989ZM1.39341 22.1107C1.4288 23.376 1.92817 24.1761 2.37643 23.7029C3.01866 23.0202 2.98327 20.127 2.12215 20.0229C1.57298 20.0875 1.36327 21.2869 1.39997 22.116L1.39341 22.1107ZM3.15759 25.9041C3.41973 27.2709 4.3372 27.9985 4.83395 27.2485C5.43425 26.3469 4.89293 23.9534 3.84701 23.8598C3.12351 23.9244 3.00031 25.0948 3.16021 25.9041H3.15759ZM5.83269 29.4958C6.31764 30.9456 7.61129 31.5321 8.00187 30.5357C8.39245 29.5393 7.60867 27.6281 6.45396 27.5688C5.57973 27.6347 5.53648 28.7326 5.79861 29.4971L5.83269 29.4958ZM9.12512 32.8278C9.73983 34.2091 11.2222 34.71 11.5761 33.6634C11.6851 33.0837 11.561 32.4842 11.231 31.9965C10.901 31.5087 10.3921 31.1725 9.81585 31.0616L9.76736 31.0537C8.79876 31.1117 8.80663 32.1292 9.11202 32.8278H9.12512ZM12.7269 35.8382C13.3416 37.0245 14.9354 37.6044 15.2172 36.4709C15.2718 35.9338 15.112 35.3969 14.7731 34.9782C14.4342 34.5595 13.9438 34.2933 13.4097 34.2381C12.4215 34.2974 12.4267 35.2056 12.7544 35.8303L12.7269 35.8382ZM0.260986 22.0435C0.260986 22.5523 0.278025 23.0597 0.312103 23.5632C0.31208 23.6499 0.326706 23.7359 0.355355 23.8176V23.8176C0.507394 22.552 0.507394 21.2727 0.355355 20.0071C0.327751 20.093 0.308009 20.1812 0.296375 20.2707C0.272783 20.8568 0.260986 21.4482 0.260986 22.0448V22.0435ZM0.832443 25.9054C1.04215 27.0481 1.42487 27.7889 1.63458 27.4765C1.95308 26.9822 1.50351 23.9797 0.911084 23.8413C0.592589 23.9059 0.658123 25.0763 0.810162 25.8856L0.832443 25.9054ZM2.56779 29.476C3.00162 30.6622 3.73822 31.3595 4.00953 30.8138C4.34245 30.0876 3.47478 27.6439 2.67395 27.549C2.16016 27.6149 2.31876 28.7128 2.594 29.4773L2.56779 29.476ZM5.28745 32.8067C5.90216 33.9547 6.89959 34.5729 7.13027 33.9481C7.42648 33.1481 6.33599 31.113 5.35167 31.0405C4.68716 31.0985 4.91784 32.116 5.28745 32.8146V32.8067ZM8.59954 35.825C9.27847 36.8136 10.4856 37.4818 10.6743 36.7595C10.8631 36.0373 9.75687 34.3159 8.64935 34.2368C7.92716 34.2948 8.16439 35.2029 8.59168 35.829L8.59954 35.825ZM12.2065 38.4651C12.9287 39.3522 14.1883 39.915 14.2892 39.1913C14.3901 38.4677 13.2761 37.1418 12.2419 37.0825C11.5197 37.126 11.6613 37.8087 12.1777 38.4704L12.2065 38.4651ZM2.054 30.7861C2.08484 30.8665 2.12628 30.9423 2.1772 31.0115V31.0115C1.90729 29.8219 1.50728 28.6659 0.984482 27.5648V27.8113C1.25325 28.824 1.59403 29.816 2.00419 30.7795L2.054 30.7861ZM3.20478 32.8146C3.72905 33.7491 4.31754 34.4147 4.3975 34.1458C4.5207 33.7162 3.19036 31.1354 2.66215 31.0405C2.41706 31.0998 2.74866 32.008 3.20478 32.8146ZM5.89429 35.8316C6.61648 36.778 7.48415 37.3513 7.49857 36.9151C7.49857 36.3562 6.05682 34.3198 5.3307 34.2394C4.9375 34.2908 5.3307 35.1054 5.87201 35.8316H5.89429ZM9.16838 38.4677C9.89187 39.194 10.9404 39.7858 10.9758 39.3904C11.0112 38.995 9.51571 37.1444 8.64804 37.0917C8.18405 37.1352 8.55367 37.8179 9.19066 38.4809L9.16838 38.4677ZM12.8108 40.6504C13.5972 41.2686 14.6837 41.7418 14.6182 41.378C14.1083 40.4746 13.2633 39.8111 12.2681 39.5327C11.8042 39.5327 12.1371 40.1061 12.6954 40.5872L12.8108 40.6807V40.6504ZM5.89036 36.8834C5.94817 36.9539 6.01368 37.0175 6.08565 37.0732C5.40908 36.0827 4.67193 35.1354 3.87847 34.2368C3.87847 34.2368 3.87847 34.2816 3.98725 34.4477C4.55639 35.3029 5.18351 36.1176 5.86415 36.8861L5.89036 36.8834ZM7.59163 38.477C8.00275 38.9136 8.49182 39.2686 9.03338 39.5235C9.14085 39.3324 6.86551 37.1523 6.48148 37.0917C6.29405 37.1352 6.90876 37.8628 7.57983 38.4809L7.59163 38.477ZM10.8565 40.6623C11.354 41.0623 11.931 41.3504 12.5486 41.5072C11.7656 40.6663 10.8213 39.9937 9.7726 39.5301C9.54061 39.5301 9.96134 39.9967 10.4961 40.3881L10.8893 40.6794L10.8565 40.6623ZM14.5042 42.4179C15.0293 42.708 15.5983 42.9092 16.1884 43.0137C15.3425 42.3745 14.3962 41.8822 13.3888 41.5573C13.3455 41.5573 13.2013 41.5573 13.4687 41.805C13.7888 42.0542 14.1357 42.2664 14.5028 42.4377L14.5042 42.4179ZM11.4503 41.4202L11.6744 41.5375C11.5879 41.4571 8.73978 39.5604 8.72537 39.5499C8.78038 39.6043 8.83859 39.6553 8.89969 39.7028C9.71008 40.3323 10.5627 40.9048 11.4516 41.4162L11.4503 41.4202ZM13.5487 42.4338C14.0717 42.679 14.6129 42.8831 15.1674 43.044C15.0953 42.9649 12.1095 41.5942 11.9719 41.5546C12.4645 41.9051 12.9964 42.1962 13.5565 42.4219L13.5487 42.4338ZM17.1714 43.6292C17.7202 43.7815 18.2773 43.9017 18.8399 43.9891L15.8764 43.1165C15.7803 43.084 15.681 43.0619 15.5802 43.0506V43.0506C16.0924 43.3073 16.6338 43.5002 17.1924 43.6253L17.1714 43.6292ZM18.292 43.9311L18.545 43.9746C17.9054 43.8217 17.2723 43.7109 16.6432 43.5304C16.0141 43.3498 15.5724 43.1679 15.0245 43.0361L15.2486 43.1231C16.2426 43.4653 17.2596 43.7354 18.292 43.9311" fill="url(#paint0_linear_14_480)"/>
<path d="M195.213 32.0488V18.2884H196.044L196.103 20.8309C196.461 20.0142 197.049 19.3207 197.794 18.8357C198.54 18.3507 199.409 18.0954 200.297 18.1012C201.58 18.1223 202.803 18.6497 203.703 19.5695C204.603 20.4893 205.107 21.7279 205.107 23.0182C205.107 24.3085 204.603 25.5471 203.703 26.4669C202.803 27.3867 201.58 27.9141 200.297 27.9352C199.407 27.941 198.536 27.6839 197.79 27.1958C197.044 26.7077 196.458 26.0101 196.103 25.1897V32.0436L195.213 32.0488ZM196.18 22.9991C196.175 23.8033 196.407 24.591 196.846 25.2627C197.286 25.9344 197.914 26.4599 198.651 26.7727C199.388 27.0855 200.2 27.1716 200.985 27.02C201.771 26.8685 202.494 26.4862 203.063 25.9214C203.633 25.3566 204.023 24.6348 204.184 23.8471C204.345 23.0594 204.271 22.2413 203.97 21.4963C203.669 20.7512 203.155 20.1126 202.493 19.6613C201.831 19.2099 201.051 18.9661 200.251 18.9606H200.215C199.148 18.9616 198.124 19.3867 197.368 20.1431C196.611 20.8996 196.182 21.9262 196.175 22.9991H196.18ZM183.742 23.7662V18.2884H184.641V23.4881C184.641 26.0122 185.886 27.0771 187.524 27.0771C190.352 27.0771 191.17 24.4608 191.17 23.3563V18.2884H192.061V27.748H191.194L191.156 25.7103C190.765 26.3961 190.199 26.9641 189.516 27.3554C188.832 27.7466 188.058 27.9468 187.272 27.9352C185.186 27.9352 183.733 26.5328 183.733 23.7662H183.742ZM171.403 22.9991C171.404 21.8594 171.797 20.7552 172.516 19.8742C173.235 18.9932 174.236 18.3898 175.347 18.1666C176.458 17.9433 177.612 18.114 178.613 18.6497C179.613 19.1853 180.398 20.0528 180.834 21.1047C181.271 22.1566 181.331 23.328 181.006 24.4197C180.68 25.5114 179.989 26.456 179.049 27.093C178.109 27.73 176.979 28.0201 175.851 27.9139C174.722 27.8076 173.665 27.3117 172.859 26.5104C172.398 26.0511 172.031 25.5043 171.781 24.9015C171.531 24.2988 171.403 23.6521 171.403 22.9991ZM172.296 22.9991C172.288 23.8055 172.519 24.5961 172.958 25.2707C173.397 25.9454 174.026 26.4738 174.764 26.7892C175.502 27.1046 176.317 27.1928 177.105 27.0426C177.892 26.8924 178.618 26.5105 179.19 25.9454C179.762 25.3802 180.155 24.6571 180.318 23.8676C180.482 23.078 180.409 22.2575 180.108 21.5098C179.808 20.7621 179.293 20.1208 178.63 19.667C177.968 19.2132 177.186 18.9674 176.384 18.9606H176.364C175.292 18.955 174.261 19.3767 173.497 20.1336C172.734 20.8905 172.299 21.9208 172.289 22.9991H172.296ZM150.17 21.1116C150.17 17.3908 152.866 14.2868 156.735 14.2868C157.775 14.2741 158.801 14.5264 159.718 15.02C160.635 15.5137 161.412 16.2327 161.978 17.11L161.29 17.6518C160.798 16.8853 160.124 16.2547 159.328 15.8173C158.533 15.3799 157.641 15.1497 156.734 15.1475C153.481 15.1475 151.064 17.8389 151.064 21.1116C151.064 24.3844 153.447 27.0745 156.655 27.0745C159.779 27.0745 161.973 24.7561 162.251 21.7825H156.507V20.906H163.181C163.181 24.9076 160.597 27.9365 156.655 27.9365C152.854 27.9365 150.164 24.8312 150.164 21.1103L150.17 21.1116ZM136.654 25.3769H137.546C137.9 26.4049 138.81 27.1338 140.316 27.1338C141.784 27.1338 142.676 26.4603 142.676 25.5258C142.676 24.1418 141.504 23.8255 139.48 22.9648C138.308 22.4969 136.97 21.8998 136.97 20.4223C136.97 18.9448 138.422 18.1038 139.854 18.1038C141.546 18.1038 142.754 19.0977 142.904 20.5343H142.011C141.922 20.0414 141.654 19.5996 141.258 19.2953C140.863 18.991 140.368 18.8463 139.872 18.8894C138.924 18.8894 137.884 19.4311 137.884 20.4223C137.884 21.5624 139.092 21.8827 140.876 22.663C142.309 23.2614 143.59 23.9165 143.59 25.5258C143.59 26.9467 142.289 27.9378 140.301 27.9378C138.383 27.9378 136.989 26.9796 136.654 25.3716V25.3769ZM124.68 23.0044C124.68 21.8636 125.073 20.7582 125.793 19.876C126.512 18.9938 127.513 18.3894 128.625 18.1654C129.737 17.9415 130.892 18.1119 131.894 18.6476C132.895 19.1833 133.681 20.0514 134.118 21.1041C134.555 22.1568 134.616 23.3292 134.291 24.422C133.965 25.5147 133.273 26.4604 132.333 27.0981C131.392 27.7359 130.261 28.0263 129.132 27.9202C128.002 27.814 126.944 27.3177 126.137 26.5157C125.674 26.0564 125.306 25.509 125.054 24.9052C124.803 24.3015 124.673 23.6536 124.673 22.9991L124.68 23.0044ZM125.573 23.0044C125.565 23.8107 125.796 24.6011 126.235 25.2757C126.674 25.9503 127.302 26.4787 128.04 26.7942C128.778 27.1097 129.593 27.198 130.38 27.048C131.168 26.898 131.894 26.5164 132.466 25.9515C133.039 25.3867 133.431 24.6638 133.595 23.8744C133.759 23.0851 133.686 22.2646 133.386 21.5169C133.086 20.7691 132.572 20.1276 131.909 19.6735C131.247 19.2195 130.465 18.9732 129.663 18.9659H129.644C128.572 18.9595 127.541 19.3803 126.777 20.1361C126.013 20.8919 125.577 21.9213 125.566 22.9991L125.573 23.0044ZM98.3982 25.3742H99.2908C99.6433 26.4023 100.554 27.1312 102.06 27.1312C103.528 27.1312 104.419 26.459 104.419 25.5232C104.419 24.1405 103.248 23.8229 101.224 22.9622C100.052 22.4943 98.7141 21.8972 98.7141 20.4197C98.7141 18.9421 100.166 18.1012 101.598 18.1012C103.29 18.1012 104.498 19.095 104.648 20.5317H103.752C103.663 20.0392 103.395 19.5977 103 19.2935C102.604 18.9893 102.111 18.8443 101.615 18.8868C100.666 18.8868 99.625 19.4285 99.625 20.4197C99.625 21.5611 100.833 21.8814 102.619 22.6604C104.055 23.2614 105.345 23.9112 105.345 25.5258C105.345 26.948 104.043 27.9378 102.054 27.9378C100.132 27.9352 98.7377 26.9822 98.3982 25.3742ZM86.4238 23.0017C86.4241 21.861 86.8172 20.7555 87.5364 19.8734C88.2556 18.9912 89.2564 18.3868 90.3687 18.1628C91.481 17.9389 92.636 18.1092 93.6375 18.645C94.639 19.1807 95.4251 20.0487 95.862 21.1014C96.299 22.1541 96.3599 23.3266 96.0344 24.4193C95.7089 25.5121 95.017 26.4577 94.0765 27.0955C93.136 27.7332 92.0048 28.0237 90.8754 27.9175C89.7459 27.8113 88.6879 27.315 87.8813 26.513C87.4201 26.0531 87.0542 25.5056 86.8049 24.9024C86.5556 24.2992 86.4279 23.6523 86.429 22.9991L86.4238 23.0017ZM87.3164 23.0017C87.3089 23.808 87.5393 24.5985 87.9786 25.2731C88.4179 25.9476 89.0462 26.4761 89.7841 26.7916C90.522 27.107 91.3364 27.1954 92.1242 27.0454C92.9121 26.8954 93.638 26.5138 94.2102 25.9489C94.7824 25.384 95.1751 24.6612 95.3387 23.8718C95.5024 23.0824 95.4296 22.262 95.1295 21.5142C94.8295 20.7665 94.3157 20.125 93.6531 19.6709C92.9904 19.2168 92.2088 18.9706 91.407 18.9632H91.3887C90.3182 18.9597 89.2898 19.382 88.5279 20.1381C87.766 20.8942 87.3323 21.9227 87.3216 22.9991L87.3164 23.0017ZM76.1428 23.0017C76.1491 21.698 76.6694 20.4501 77.5897 19.5318C78.5099 18.6136 79.7549 18.1 81.0513 18.1038C81.6265 18.0941 82.1975 18.2038 82.7286 18.4261C83.2597 18.6483 83.7395 18.9783 84.138 19.3955V20.3314C83.5953 19.7182 82.88 19.2854 82.0871 19.0904C81.2942 18.8953 80.4611 18.9472 79.6982 19.2392C78.9353 19.5312 78.2787 20.0495 77.8154 20.7253C77.3521 21.4011 77.104 22.2026 77.104 23.0235C77.104 23.8443 77.3521 24.6458 77.8154 25.3216C78.2787 25.9975 78.9353 26.5157 79.6982 26.8077C80.4611 27.0997 81.2942 27.1516 82.0871 26.9566C82.88 26.7615 83.5953 26.3287 84.138 25.7156V26.6501C83.7396 27.0674 83.2598 27.3974 82.7286 27.6194C82.1975 27.8415 81.6265 27.9508 81.0513 27.9405C80.4073 27.9412 79.7695 27.8143 79.1742 27.567C78.579 27.3198 78.038 26.957 77.5822 26.4995C77.1264 26.042 76.7647 25.4987 76.5177 24.9005C76.2707 24.3024 76.1433 23.6612 76.1428 23.0136V23.0017ZM165.72 27.7467V18.2884H166.558L166.615 19.7277C167.139 18.7932 167.879 18.1012 168.921 18.1012C169.368 18.0922 169.803 18.2447 170.147 18.5309L169.925 19.2967C169.618 19.0794 169.252 18.9621 168.876 18.9606C167.204 18.9606 166.611 20.9798 166.611 22.5127V27.748L165.72 27.7467ZM121.304 27.7467V22.1213C121.304 20.2325 120.411 18.9579 118.813 18.9579C116.935 18.9579 115.708 20.7914 115.537 22.8291V27.7454H114.651V22.1213C114.651 20.2325 113.733 18.9579 112.141 18.9579C110.282 18.9579 109.037 20.7914 108.864 22.8291V27.7454H107.971V18.2884H108.806L108.864 20.3828C109.589 19.1662 110.761 18.1038 112.378 18.1038C113.097 18.0841 113.798 18.327 114.352 18.7874C114.907 19.2479 115.276 19.8947 115.392 20.6081C116.099 19.2993 117.31 18.1038 119.053 18.1038C121.061 18.1038 122.199 19.6552 122.199 21.9012V27.748L121.304 27.7467Z" fill="black" stroke="black" stroke-width="0.5"/>
<path d="M65.5092 35.9463H66.2589C66.2752 36.2567 66.4132 36.548 66.6426 36.7563C66.8721 36.9646 67.1743 37.0728 67.4831 37.0574H67.4962C68.2118 37.0574 68.647 36.6818 68.647 36.1638C68.647 35.5048 68.0545 35.1911 67.314 34.8141C66.2248 34.2289 65.6429 33.8269 65.6429 32.8976C65.6659 32.4691 65.857 32.0673 66.1742 31.7802C66.4913 31.4931 66.9088 31.3442 67.335 31.3661H67.3979C67.8575 31.3569 68.302 31.5312 68.6342 31.8508C68.9663 32.1705 69.1589 32.6095 69.1699 33.0716H68.4202C68.4123 32.8056 68.3012 32.5531 68.1107 32.3684C67.9201 32.1837 67.6652 32.0812 67.4005 32.0831C67.1594 32.0576 66.918 32.1291 66.7292 32.2819C66.5403 32.4348 66.4193 32.6566 66.3926 32.899C66.3926 32.9095 66.3926 32.9214 66.3926 32.9332C66.3926 33.583 66.8815 33.8005 67.5604 34.1353C68.6509 34.6955 69.3954 35.2121 69.3954 36.1941C69.3954 37.176 68.5762 37.7758 67.504 37.7758C67.2551 37.7878 67.0062 37.7504 66.7716 37.6657C66.5369 37.5811 66.3212 37.4507 66.1367 37.2822C65.9522 37.1136 65.8025 36.9102 65.6962 36.6835C65.5899 36.4567 65.529 36.2112 65.5171 35.9608V35.9608L65.5092 35.9463ZM110.555 37.6809V31.4583H112.553C112.937 31.455 113.317 31.5278 113.672 31.6723C114.028 31.8169 114.351 32.0305 114.624 32.3009C114.897 32.5714 115.115 32.8933 115.264 33.2483C115.414 33.6033 115.492 33.9844 115.495 34.3699C115.495 34.4371 115.495 34.5017 115.495 34.5703C115.518 34.9549 115.465 35.3403 115.34 35.7045C115.215 36.0687 115.02 36.4046 114.766 36.6929C114.512 36.9813 114.204 37.2165 113.859 37.3851C113.515 37.5537 113.14 37.6524 112.758 37.6756C112.692 37.6756 112.627 37.6822 112.561 37.6756L110.555 37.6809ZM111.297 36.9717H112.553C113.817 36.9717 114.741 36.0254 114.741 34.5703C114.741 33.1151 113.824 32.1688 112.553 32.1688H111.299L111.297 36.9717ZM106.067 37.6809V31.4583H109.379V32.1688H106.807V34.105H108.794V34.818H106.807V36.9744H109.379V37.6809H106.067ZM104.009 37.6809L102.698 35.5957H101.334V37.6809H100.596V31.4583H102.805C103.332 31.4495 103.841 31.6514 104.22 32.0196C104.599 32.3878 104.817 32.8923 104.827 33.4222C104.827 33.4578 104.827 33.4921 104.827 33.5277C104.842 33.9573 104.719 34.3803 104.475 34.7339C104.232 35.0874 103.882 35.3527 103.477 35.4903L104.87 37.6822L104.009 37.6809ZM101.337 34.8853H102.801C102.968 34.8867 103.134 34.8549 103.289 34.7918C103.444 34.7287 103.585 34.6355 103.705 34.5175C103.824 34.3995 103.919 34.2591 103.984 34.1041C104.049 33.9492 104.084 33.7829 104.085 33.6147C104.085 33.5857 104.085 33.5567 104.085 33.5277C104.095 33.3597 104.073 33.1913 104.018 33.0321C103.964 32.873 103.879 32.7262 103.768 32.6001C103.657 32.474 103.522 32.3711 103.372 32.2974C103.222 32.2236 103.058 32.1803 102.891 32.1701H102.805H101.338L101.337 34.8853ZM96.1084 37.6809V31.4583H99.4191V32.1688H96.8489V34.105H98.8359V34.818H96.8489V36.9744H99.4204V37.6809H96.1084ZM92.116 37.6809L89.9468 31.4583H90.7228L92.5577 36.7701L94.3927 31.4583H95.1673L92.9981 37.6809H92.116ZM88.184 37.6809V31.4583H88.9337V37.6809H88.184ZM83.8351 37.6809V31.4583H84.5809V36.9717H87.1092V37.6809H83.8351ZM79.2242 37.6809V31.4583H82.5389V32.1688H79.9686V34.105H81.9556V34.818H79.9686V36.9744H82.5389V37.6809H79.2242ZM73.3104 37.6809V31.4583H75.3026C75.6859 31.4552 76.0661 31.528 76.4214 31.6727C76.7767 31.8173 77.1003 32.0309 77.3735 32.3013C77.6467 32.5716 77.8643 32.8935 78.0139 33.2484C78.1634 33.6033 78.242 33.9844 78.2451 34.3699C78.2451 34.4358 78.2451 34.5017 78.2451 34.5703C78.2681 34.955 78.2156 35.3405 78.0905 35.7048C77.9654 36.0691 77.7701 36.405 77.5158 36.6934C77.2616 36.9817 76.9533 37.2169 76.6086 37.3854C76.2639 37.554 75.8896 37.6526 75.5071 37.6756C75.4415 37.6756 75.376 37.6822 75.3078 37.6756L73.3104 37.6809ZM74.0496 36.9717H75.3052C76.5687 36.9717 77.4927 36.0254 77.4927 34.5703C77.4927 33.1151 76.5753 32.1688 75.3052 32.1688H74.0483L74.0496 36.9717ZM63.5196 37.6809V32.8265L61.3058 36.4195H60.9664L58.7526 32.8265V37.6809H58.0121V31.4583H58.7526L61.1407 35.315L63.5222 31.4583H64.2719V37.6809H63.5196ZM56.2086 37.6809L55.6594 36.148H53.004L52.4548 37.6809H51.6789L53.907 31.4583H54.7524L56.9806 37.6809H56.2086ZM53.253 35.4402H55.3973L54.3252 32.4429L53.253 35.4402ZM47.5974 37.6809V31.4583H50.9121V32.1688H48.3406V34.105H50.3276V34.818H48.3406V36.9744H50.9108V37.6809H47.5974ZM45.541 37.6809L44.2303 35.5957H42.8672V37.6809H42.1266V31.4583H44.3351C44.8623 31.4499 45.3712 31.6523 45.7499 32.0211C46.1287 32.3898 46.3463 32.8948 46.3549 33.4249C46.3549 33.4591 46.3549 33.4934 46.3549 33.5277C46.3695 33.9574 46.2459 34.3805 46.0024 34.734C45.759 35.0875 45.4087 35.3527 45.0036 35.4903L46.3982 37.6809H45.541ZM42.8646 34.8853H44.3325C44.4998 34.8861 44.6657 34.8539 44.8206 34.7903C44.9755 34.7267 45.1164 34.633 45.2353 34.5147C45.3542 34.3963 45.4488 34.2556 45.5136 34.1005C45.5784 33.9454 45.6122 33.779 45.6131 33.6107C45.6131 33.583 45.6131 33.5554 45.6131 33.5277C45.6331 33.1883 45.5186 32.8549 45.2945 32.6004C45.0704 32.3459 44.7551 32.1911 44.4177 32.1701H44.3351H42.8672L42.8646 34.8853ZM36.2063 37.6809V31.4583H38.2025C38.5858 31.4552 38.966 31.528 39.3213 31.6727C39.6766 31.8173 40.0001 32.0309 40.2734 32.3013C40.5466 32.5716 40.7642 32.8935 40.9138 33.2484C41.0633 33.6033 41.1419 33.9844 41.1449 34.3699C41.1449 34.4358 41.1449 34.5017 41.1449 34.5703C41.168 34.955 41.1155 35.3405 40.9903 35.7048C40.8652 36.0691 40.6699 36.405 40.4157 36.6934C40.1614 36.9817 39.8531 37.2169 39.5085 37.3854C39.1638 37.554 38.7895 37.6526 38.4069 37.6756C38.3414 37.6756 38.2759 37.6822 38.2077 37.6756L36.2063 37.6809ZM36.9468 36.9717H38.2025C39.466 36.9717 40.39 36.0254 40.39 34.5703C40.39 33.1151 39.466 32.1688 38.2025 32.1688H36.9481L36.9468 36.9717Z" fill="#474748"/>
<defs>
<linearGradient id="paint0_linear_14_480" x1="3.445" y1="34.2619" x2="33.5978" y2="22.0158" gradientUnits="userSpaceOnUse">
<stop stop-color="#20419A"/>
<stop offset="1" stop-color="#EF6823"/>
</linearGradient>
</defs>
</svg>
