<svg width="40" height="40" viewBox="0 0 40 40" fill="none" xmlns="http://www.w3.org/2000/svg">
<path d="M22.6271 0.384042C23.2187 0.217702 23.8202 0.0894256 24.4282 0L21.6339 0.781328C21.4551 0.827678 21.4485 0.821056 21.4287 0.781328C21.8088 0.595784 22.2086 0.453632 22.6205 0.357557L22.6271 0.384042ZM20.1706 1.49644C19.5084 1.83413 19.2171 2.11223 19.3561 2.15858C19.6541 2.23804 21.8326 1.03294 21.9716 0.834299C21.3553 0.974779 20.7607 1.19748 20.2037 1.49644H20.1706ZM18.6145 3.0922C18.0319 3.60205 17.9524 3.95299 18.3033 3.95299C19.0648 3.97285 20.6937 2.44993 20.4553 2.19831C20.4188 2.18619 20.3793 2.18619 20.3427 2.19831C19.7013 2.36089 19.11 2.6793 18.6212 3.12531L18.6145 3.0922ZM18.0915 5.15809C17.6544 5.82023 17.8465 6.31021 18.4821 6.17779C19.5217 5.95928 20.4685 4.44959 20.0315 4.07879C19.9666 4.01722 19.8824 3.97981 19.7932 3.97285C19.4483 4.04266 19.1207 4.18049 18.8297 4.37831C18.5386 4.57612 18.2899 4.82996 18.0981 5.12498L18.0915 5.15809ZM18.641 7.5418C18.3166 8.4688 19.0251 9.03824 19.9653 8.58136C21.1042 8.02516 21.3823 6.5221 20.6275 6.23076C20.5356 6.20044 20.4395 6.1848 20.3427 6.18441C19.9666 6.2373 19.6119 6.39158 19.3168 6.63069C19.0217 6.86986 18.7972 7.18477 18.6675 7.5418H18.641ZM20.2368 10.2963C20.0779 11.4683 21.3227 12.051 22.349 11.2895C23.3754 10.5281 23.2297 8.88595 22.0378 8.76676H21.912C21.5004 8.79603 21.1107 8.96381 20.8066 9.24271C20.5024 9.52167 20.3016 9.89532 20.2368 10.3029V10.2963ZM22.7066 13.3422C22.7244 13.6459 22.8309 13.9377 23.0128 14.1816C23.1947 14.4254 23.4441 14.6105 23.7302 14.7141C24.0162 14.8177 24.3264 14.8351 24.6223 14.7642C24.9181 14.6935 25.1868 14.5374 25.3949 14.3155C25.627 14.1136 25.7918 13.8455 25.8674 13.5472C25.9429 13.2489 25.9255 12.9346 25.8175 12.6465C25.7094 12.3584 25.5159 12.1102 25.2629 11.9352C25.0098 11.76 24.7094 11.6665 24.4017 11.6669C23.9576 11.6754 23.5341 11.8551 23.2194 12.1684C22.9048 12.4819 22.7234 12.9048 22.7132 13.3488L22.7066 13.3422ZM25.8782 16.6264C25.9242 16.9648 26.0672 17.2826 26.29 17.5415C26.5127 17.8004 26.8056 17.9892 27.1334 18.0852C27.4612 18.1811 27.8097 18.1801 28.1369 18.0822C28.464 17.9843 28.7558 17.7937 28.9771 17.5335C29.1786 17.2837 29.3038 16.981 29.3377 16.6617C29.3716 16.3425 29.3126 16.0203 29.168 15.7338C29.0233 15.4472 28.799 15.2084 28.522 15.0461C28.2451 14.8838 27.9272 14.8049 27.6064 14.8187C27.371 14.8126 27.1368 14.8558 26.9191 14.9455C26.7014 15.0353 26.5048 15.1696 26.342 15.3398C26.1793 15.5101 26.0539 15.7125 25.9741 15.9341C25.8942 16.1556 25.8616 16.3915 25.8782 16.6264ZM29.4141 20.096C29.4557 20.4199 29.5896 20.725 29.7999 20.9749C30.0101 21.2248 30.2879 21.4089 30.6 21.5052C30.912 21.6016 31.2452 21.6061 31.5598 21.5182C31.8743 21.4304 32.1569 21.2539 32.3739 21.0098C32.5594 20.793 32.6882 20.5335 32.7486 20.2546C32.809 19.9757 32.7991 19.6861 32.7198 19.412C32.6406 19.138 32.4944 18.8878 32.2945 18.6842C32.0946 18.4806 31.8472 18.3298 31.5746 18.2455C31.3019 18.1612 31.0126 18.146 30.7327 18.2013C30.4527 18.2565 30.1909 18.3805 29.9707 18.562C29.7506 18.7435 29.579 18.977 29.4714 19.2413C29.3639 19.5056 29.3237 19.7925 29.3545 20.0761L29.4141 20.096ZM21.1174 0.748221L20.9122 0.821056C21.5214 0.682006 22.104 0.456878 22.7066 0.311207C23.2098 0.1854 23.6998 0.105943 24.1832 0L23.9448 0.0397285C22.9865 0.207303 22.0415 0.444087 21.1174 0.748221ZM19.2966 1.49644C18.8826 1.67313 18.4895 1.8952 18.1246 2.15858C18.3166 2.15858 21.0446 0.834299 21.0645 0.834299C20.4558 1.00599 19.8623 1.22745 19.2899 1.49644H19.2966ZM16.8731 3.0922C16.211 3.56232 15.9395 3.90002 16.0653 3.94637C16.3169 4.03907 18.6675 2.4433 18.6543 2.17845H18.6145C17.9881 2.39195 17.4 2.70496 16.8731 3.10545V3.0922ZM15.3303 5.12498C14.8139 5.69442 14.6682 6.16454 15.0191 6.16454C15.7607 6.16454 17.4095 4.2973 17.1645 4.01258C17.1312 3.9848 17.0886 3.97061 17.0453 3.97285C16.377 4.18863 15.7828 4.58784 15.3303 5.12498ZM14.794 7.5418C14.3636 8.30988 14.5424 8.86608 15.1714 8.71379C16.2904 8.44231 17.2505 6.56845 16.6877 6.23076C16.6259 6.20031 16.5579 6.18446 16.4891 6.18441C16.1267 6.27803 15.7882 6.44742 15.496 6.68141C15.2039 6.91535 14.9646 7.20861 14.794 7.5418ZM15.3237 10.2963C15.0125 11.3226 15.7077 11.9517 16.6083 11.4551C17.7405 10.8326 18.1312 9.03824 17.1976 8.80649C17.1315 8.80053 17.065 8.80053 16.9989 8.80649C16.6044 8.88138 16.2387 9.06486 15.9427 9.3362C15.6468 9.60762 15.4324 9.95617 15.3237 10.3427V10.2963ZM16.8665 13.3819C16.8131 13.6399 16.8452 13.9084 16.9581 14.1465C17.071 14.3846 17.2584 14.5794 17.492 14.7015C17.7256 14.8235 17.9925 14.866 18.2524 14.8226C18.5124 14.7793 18.7511 14.6524 18.9324 14.4612C20.005 13.5872 19.8329 11.8126 18.6543 11.7H18.5285C18.1017 11.7502 17.7048 11.9441 17.4028 12.2497C17.1008 12.5553 16.9117 12.9546 16.8665 13.3819ZM19.2899 16.6595C19.2817 16.9664 19.3681 17.2684 19.5374 17.5245C19.7066 17.7807 19.9506 17.9785 20.2361 18.0913C20.5217 18.2041 20.835 18.2263 21.1337 18.1549C21.4322 18.0836 21.7017 17.9221 21.9054 17.6924C22.8523 16.7257 22.4616 14.9247 20.9519 14.8518C20.4947 14.8792 20.0659 15.0829 19.7559 15.42C19.4459 15.7573 19.2788 16.2016 19.2899 16.6595ZM22.3755 20.1291C22.3972 20.4689 22.5215 20.794 22.7319 21.0615C22.9424 21.3292 23.2291 21.5266 23.5541 21.6277C23.8792 21.7289 24.2273 21.7291 24.5524 21.6282C24.8775 21.5273 25.1643 21.3301 25.375 21.0627C25.5788 20.8083 25.7075 20.502 25.7463 20.1783C25.7853 19.8547 25.7329 19.5266 25.5952 19.2311C25.4574 18.9357 25.2398 18.6846 24.9669 18.5063C24.6939 18.328 24.3766 18.2296 24.0507 18.2221C23.8109 18.2243 23.5742 18.2768 23.356 18.3764C23.1378 18.4761 22.943 18.6206 22.7844 18.8005C22.6257 18.9803 22.5068 19.1916 22.4352 19.4206C22.3636 19.6495 22.341 19.8909 22.3689 20.1291H22.3755ZM25.8187 23.5921C25.8694 23.9246 26.0144 24.2356 26.2363 24.4883C26.4583 24.7411 26.7479 24.9249 27.0711 25.0183C27.3942 25.1116 27.7373 25.1105 28.0598 25.0149C28.3823 24.9195 28.6708 24.7336 28.891 24.4794C29.0992 24.2325 29.2315 23.9307 29.2722 23.6103C29.3128 23.29 29.26 22.9647 29.12 22.6737C28.9801 22.3827 28.7591 22.1383 28.4835 21.9699C28.2079 21.8016 27.8895 21.7165 27.5667 21.7249C27.327 21.7201 27.089 21.766 26.8683 21.8596C26.6475 21.9533 26.4491 22.0925 26.2859 22.2682C26.1228 22.4438 25.9986 22.652 25.9214 22.879C25.8443 23.106 25.8161 23.3468 25.8385 23.5855L25.8187 23.5921ZM15.2906 3.81394C15.2424 3.86337 15.1981 3.91651 15.1582 3.97285C15.2575 3.93975 17.8862 2.20493 17.8928 2.19169L17.6743 2.30425C16.8457 2.75162 16.0492 3.25607 15.2906 3.81394ZM13.8802 5.13822C13.2181 5.74077 12.9466 6.17116 13.0857 6.17779C13.3505 6.17779 15.5356 4.19136 15.4429 3.9861C14.8672 4.28336 14.3439 4.67251 13.8935 5.13822H13.8802ZM12.311 7.53518C11.8144 8.23705 11.6885 8.79325 12.0395 8.72703C12.7016 8.60123 14.2775 6.47575 13.92 6.20427C13.896 6.19907 13.8711 6.19907 13.8471 6.20427C13.4631 6.244 12.748 6.93925 12.311 7.56166V7.53518ZM11.7614 10.3162C11.3641 11.2233 11.5826 11.8523 12.1984 11.5875C13.1651 11.1703 14.0723 9.09121 13.4167 8.80649C13.3728 8.80033 13.3282 8.80033 13.2843 8.80649C12.6751 8.85946 12.0262 9.73349 11.7614 10.3427V10.3162ZM12.2779 13.3819C12.0329 14.5075 12.6751 15.1763 13.4896 14.64C14.5953 13.9116 14.8602 11.8523 13.867 11.7H13.7809C12.993 11.753 12.4566 12.7197 12.2845 13.3819H12.2779ZM13.8339 16.6065C13.7677 17.9308 14.9066 18.5929 15.8203 17.7586C16.7341 16.9244 16.6347 14.8783 15.3369 14.7989C14.3371 14.8518 13.8339 15.8914 13.8339 16.6065ZM16.2507 20.0761C16.3633 21.5461 17.8465 22.1884 18.7271 21.1422C19.6078 20.096 19.131 18.2486 17.7074 18.1692C17.4857 18.1969 17.2718 18.2684 17.078 18.3796C16.8843 18.4908 16.7147 18.6396 16.5791 18.8171C16.4435 18.9947 16.3446 19.1974 16.2882 19.4136C16.2318 19.6298 16.2191 19.855 16.2507 20.0761ZM19.3098 23.5391C19.5415 24.9959 21.2962 25.5256 22.1239 24.4264C22.3006 24.1686 22.4056 23.8683 22.4279 23.5565C22.4503 23.2446 22.3892 22.9325 22.251 22.6521C22.1128 22.3717 21.9025 22.1331 21.6416 21.9608C21.3807 21.7886 21.0786 21.6889 20.7665 21.6719C20.5424 21.6816 20.3231 21.74 20.1238 21.8428C19.9244 21.9456 19.7497 22.0904 19.6119 22.2674C19.4739 22.4443 19.3761 22.6491 19.3252 22.8675C19.2741 23.0859 19.2711 23.3128 19.3164 23.5325L19.3098 23.5391ZM22.6933 26.8035C22.7241 27.117 22.8465 27.4145 23.0453 27.6589C23.2442 27.9032 23.5106 28.0834 23.8114 28.1772C24.1122 28.2709 24.4339 28.2739 24.7363 28.1857C25.0387 28.0977 25.3085 27.9223 25.5119 27.6818C25.7152 27.4412 25.8432 27.146 25.8797 26.8331C25.9162 26.5202 25.8597 26.2035 25.7172 25.9225C25.5747 25.6416 25.3526 25.4089 25.0786 25.2535C24.8045 25.0981 24.4908 25.0269 24.1765 25.0488C23.9559 25.0427 23.7367 25.0862 23.5353 25.1763C23.3338 25.2664 23.1552 25.4007 23.0127 25.5693C22.8703 25.7379 22.7676 25.9363 22.7123 26.15C22.657 26.3636 22.6505 26.587 22.6933 26.8035ZM10.7682 8.54163C10.7242 8.59805 10.6885 8.66049 10.6622 8.72703C11.3823 7.91432 12.0607 7.06572 12.695 6.18441C12.695 6.18441 12.6553 6.18441 12.5162 6.34994C11.8839 7.0395 11.2999 7.77183 10.7682 8.54163ZM9.86103 10.2897C9.44388 11.0843 9.29821 11.6868 9.53658 11.614C10.0332 11.4617 11.4038 8.92567 11.0794 8.76014C10.8145 8.80649 10.2583 9.59444 9.88752 10.2963L9.86103 10.2897ZM9.31145 13.3355C9.01349 14.3354 9.18565 15.0041 9.66901 14.7128C10.4503 14.2361 11.1522 11.806 10.5232 11.6471C10.0398 11.7 9.53658 12.6668 9.33794 13.3289L9.31145 13.3355ZM9.85441 16.6065C9.7286 17.7918 10.3179 18.5069 10.9602 17.9308C11.7945 17.2025 11.9865 14.8717 11.0132 14.7856C10.351 14.8452 9.93387 15.8782 9.85441 16.5933V16.6065ZM11.384 20.0695C11.4568 21.3938 12.4037 22.056 13.0989 21.3607C13.9332 20.5065 13.6948 18.2553 12.503 18.1626C11.6621 18.2221 11.3442 19.3147 11.384 20.0695ZM13.8339 23.5325C14.0921 24.9098 15.4495 25.519 16.105 24.5456C16.7606 23.5723 16.1845 21.7514 14.9132 21.6719C13.9398 21.7315 13.6948 22.7976 13.8339 23.5325ZM16.8864 26.8035C17.2638 28.1741 18.8397 28.684 19.4422 27.6312C19.5623 27.3667 19.6179 27.0775 19.6044 26.7874C19.5909 26.4973 19.5086 26.2145 19.3645 25.9623C19.2203 25.7102 19.0183 25.4958 18.7751 25.3371C18.5319 25.1782 18.2545 25.0795 17.9656 25.0488C17.7657 25.0649 17.5724 25.128 17.4016 25.2329C17.2307 25.3379 17.0871 25.4819 16.9824 25.653C16.8778 25.8241 16.8152 26.0175 16.7997 26.2175C16.7841 26.4175 16.8161 26.6182 16.893 26.8035H16.8864ZM20.2037 29.8361C20.6208 31.1604 22.3027 31.5709 22.8523 30.4983C22.9489 30.2467 22.9829 29.9754 22.9513 29.7077C22.9198 29.4401 22.8237 29.1842 22.6712 28.962C22.5187 28.7397 22.3145 28.558 22.0761 28.4322C21.8377 28.3066 21.5723 28.2407 21.3028 28.2404C21.1093 28.2374 20.9181 28.2827 20.7464 28.3722C20.5748 28.4616 20.4282 28.5925 20.3198 28.7528C20.2114 28.9131 20.1446 29.0979 20.1254 29.2905C20.1064 29.4831 20.1355 29.6775 20.2103 29.856L20.2037 29.8361ZM7.96068 14.5671C7.93748 14.6376 7.92629 14.7115 7.92758 14.7856C8.40942 13.7898 8.78025 12.7439 9.03335 11.6669C9.00025 11.7001 8.987 11.7133 8.90755 11.8788C8.52884 12.7515 8.21243 13.6498 7.96068 14.5671ZM7.71569 16.6065C7.5634 17.5931 7.66272 18.3016 7.92758 18.1096C8.32486 17.8249 8.96052 14.9114 8.42418 14.7989C8.1196 14.8585 7.82826 15.8914 7.72231 16.6065H7.71569ZM8.2454 20.0761C8.27851 21.2283 8.73539 21.9566 9.14592 21.5262C9.73522 20.9038 9.70212 18.2685 8.91417 18.1758C8.41094 18.2354 8.21892 19.3279 8.25203 20.0828L8.2454 20.0761ZM9.86103 23.5325C10.106 24.7774 10.9403 25.4395 11.3972 24.7575C11.9468 23.9364 11.4502 21.758 10.4901 21.6719C9.82792 21.7315 9.71536 22.7976 9.86103 23.5325ZM12.311 26.8035C12.7546 28.1278 13.9398 28.6575 14.2974 27.7504C14.6549 26.8432 13.9332 25.1018 12.8804 25.0488C12.0792 25.1084 12.0461 26.1083 12.2779 26.8035H12.311ZM15.3237 29.8361C15.8865 31.0942 17.2505 31.5511 17.5684 30.5976C17.6188 30.3325 17.6158 30.0601 17.5596 29.7962C17.5033 29.5323 17.3948 29.2823 17.2407 29.0609C17.0865 28.8395 16.8896 28.6511 16.6616 28.5067C16.4337 28.3625 16.1791 28.2651 15.913 28.2205C15.0257 28.2735 15.0324 29.2005 15.3171 29.8361H15.3237ZM18.6278 32.5774C19.1906 33.6567 20.6473 34.1864 20.9122 33.1535C20.9622 32.6644 20.8158 32.1755 20.5054 31.7943C20.195 31.4131 19.7459 31.1708 19.2568 31.1207C18.3497 31.1736 18.3563 32.0013 18.6543 32.5708L18.6278 32.5774ZM7.21246 20.0166C7.21246 20.4801 7.22791 20.9414 7.25881 21.4004C7.25965 21.4793 7.27306 21.5576 7.29854 21.6322C7.43766 20.4798 7.43766 19.3149 7.29854 18.1626C7.29854 18.2023 7.26543 18.2155 7.24557 18.4009C7.2235 18.9351 7.21246 19.4736 7.21246 20.0166ZM7.73556 23.5325C7.92758 24.5721 8.27851 25.2475 8.47053 24.9628C8.76188 24.5125 8.35135 21.7779 7.80839 21.652C7.51705 21.7116 7.57664 22.7777 7.71569 23.5127L7.73556 23.5325ZM9.3247 26.7836C9.72198 27.8629 10.3974 28.4986 10.649 28.002C10.9536 27.3398 10.159 25.115 9.42402 25.029C8.9539 25.0886 9.09957 26.0884 9.35118 26.7836H9.3247ZM11.8144 29.8163C12.3772 30.8624 13.2909 31.4253 13.5028 30.8558C13.7743 30.1275 12.7745 28.2735 11.8739 28.2072C11.2648 28.2602 11.4767 29.1872 11.8144 29.8229V29.8163ZM14.847 32.5641C15.4694 33.4647 16.5752 34.0738 16.7473 33.4183C16.9195 32.7628 15.9064 31.1935 14.8933 31.1207C14.2312 31.1736 14.4497 32.0013 14.8403 32.5708L14.847 32.5641ZM18.1511 34.9743C18.8132 35.7822 19.9653 36.2986 20.058 35.6365C20.1507 34.9743 19.131 33.7692 18.1842 33.7163C17.522 33.756 17.6544 34.3784 18.1246 34.981L18.1511 34.9743ZM8.85458 27.9821C8.88294 28.0552 8.92078 28.1242 8.96714 28.1874C8.71962 27.1042 8.35322 26.0516 7.87461 25.0488C7.87461 25.0819 7.87461 25.0952 7.87461 25.274C8.12143 26.1955 8.43341 27.0982 8.80823 27.9755L8.85458 27.9821ZM9.90738 29.8295C10.3907 30.6837 10.9271 31.2862 10.9999 31.0412C11.1125 30.6506 9.89414 28.3 9.41077 28.2139C9.18565 28.2668 9.49023 29.0945 9.90738 29.8295ZM12.3705 32.5774C13.0327 33.4382 13.8273 33.9613 13.8405 33.564C13.8405 33.0541 12.5162 31.2001 11.8541 31.1273C11.4965 31.1736 11.8541 31.9152 12.3507 32.5774H12.3705ZM15.3701 34.981C16.0322 35.6431 16.9923 36.1861 17.0254 35.8219C17.0585 35.4577 15.6879 33.7692 14.8933 33.7163C14.4695 33.756 14.8072 34.3784 15.3899 34.981H15.3701ZM18.7006 36.9674C19.4157 37.5302 20.4156 37.9606 20.356 37.6295C19.8889 36.8068 19.1153 36.2021 18.204 35.9477C17.7803 35.9477 18.0782 36.4708 18.5947 36.9078L18.7006 36.9939V36.9674ZM12.3639 33.5309C12.503 33.6832 12.5295 33.6898 12.5427 33.703C11.9236 32.8013 11.2491 31.9389 10.5232 31.1207C10.5232 31.1207 10.5232 31.1604 10.6225 31.3127C11.1447 32.0908 11.7199 32.832 12.3441 33.5309H12.3639ZM13.9266 34.981C14.3042 35.3791 14.7535 35.7026 15.2509 35.9344C15.3436 35.7623 13.2644 33.7759 12.9135 33.7229C12.7413 33.7626 13.3042 34.4248 13.92 34.9876L13.9266 34.981ZM16.9261 36.974C17.3797 37.3372 17.9057 37.5991 18.4689 37.7421C17.7518 36.976 16.8868 36.3633 15.9263 35.9411C15.7144 35.9411 16.0984 36.3648 16.5884 36.7224L16.9526 36.9873L16.9261 36.974ZM20.2633 38.5698C20.7441 38.8346 21.2654 39.018 21.8061 39.1127C21.0296 38.531 20.1612 38.0834 19.237 37.7884C19.1972 37.7884 19.0648 37.7884 19.3098 38.0136C19.6029 38.2404 19.9205 38.4336 20.2567 38.5896L20.2633 38.5698ZM17.4624 37.6626L17.6677 37.7686C17.5882 37.6957 14.9794 35.9676 14.9661 35.9609C14.9529 35.9543 14.9661 35.9609 15.1251 36.1C15.8672 36.6742 16.6482 37.1964 17.4624 37.6626ZM19.3893 38.5896C19.8684 38.8133 20.3643 38.9993 20.8725 39.1458C20.8062 39.073 18.0716 37.8216 17.9458 37.7884C18.3964 38.1073 18.8831 38.3719 19.3959 38.5764L19.3893 38.5896ZM22.7066 39.6755C23.2075 39.8132 23.716 39.9216 24.2295 40L21.5147 39.2054C21.4266 39.1761 21.3356 39.1561 21.2433 39.1458C21.7124 39.3795 22.2083 39.5552 22.7198 39.6689L22.7066 39.6755ZM23.7263 39.947L23.958 39.9868C23.3754 39.8477 22.7927 39.7418 22.2166 39.5829C21.6405 39.4239 21.2366 39.2518 20.7334 39.1326L20.9387 39.2121C21.8491 39.5233 22.7807 39.769 23.7263 39.947Z" fill="url(#paint0_linear_29_30)"/>
<defs>
<linearGradient id="paint0_linear_29_30" x1="10.1855" y1="31.359" x2="32.9963" y2="8.55488" gradientUnits="userSpaceOnUse">
<stop stop-color="#20419A"/>
<stop offset="1" stop-color="#EF6823"/>
</linearGradient>
</defs>
</svg>
