<!-- @formatter:off -->
<svg xmlns="http://www.w3.org/2000/svg">
    <defs>
        <svg id="academic-cap" xmlns="http://www.w3.org/2000/svg" fill="none" viewBox="0 0 24 24" stroke-width="1.5" stroke="currentColor" aria-hidden="true">
            <path stroke-linecap="round" stroke-linejoin="round" d="M4.26 10.147a60.436 60.436 0 00-.491 6.347A48.627 48.627 0 0112 20.904a48.627 48.627 0 018.232-4.41 60.46 60.46 0 00-.491-6.347m-15.482 0a50.57 50.57 0 00-2.658-.813A59.905 59.905 0 0112 3.493a59.902 59.902 0 0110.399 5.84c-.896.248-1.783.52-2.658.814m-15.482 0A50.697 50.697 0 0112 13.489a50.702 50.702 0 017.74-3.342M6.75 15a.75.75 0 100-1.5.75.75 0 000 1.5zm0 0v-3.675A55.378 55.378 0 0112 8.443m-7.007 11.55A5.981 5.981 0 006.75 15.75v-1.5"/>
        </svg>

        <svg id="text" viewBox="0 0 24 24" fill="currentColor" xmlns="http://www.w3.org/2000/svg">
            <path d="M19.5625 19.375C20.1354 19.4271 20.4479 19.7396 20.5 20.3125C20.4479 20.8854 20.1354 21.1979 19.5625 21.25H15.1875C14.6146 21.1979 14.3021 20.8854 14.25 20.3125C14.3021 19.7396 14.6146 19.4271 15.1875 19.375H16.3203L15.0312 15.9375H8.27344L6.86719 19.375H8.3125C8.88542 19.4271 9.19792 19.7396 9.25 20.3125C9.19792 20.8854 8.88542 21.1979 8.3125 21.25H3.9375C3.36458 21.1979 3.05208 20.8854 3 20.3125C3.05208 19.7396 3.36458 19.4271 3.9375 19.375H4.875L10.8906 4.33594C11.0469 3.97135 11.3333 3.77604 11.75 3.75C12.1667 3.77604 12.4531 3.97135 12.6094 4.33594L18.3516 19.375H19.5625ZM9.01562 14.0625H14.3281L11.7109 7.26562L9.01562 14.0625Z" />
        </svg>


        <svg id="fill" viewBox="0 0 24 24" fill="currentColor" xmlns="http://www.w3.org/2000/svg">
            <path d="M2.02344 2.77344C2.46615 2.40885 2.90885 2.40885 3.35156 2.77344L6.82812 6.25L9.13281 3.98438C9.70573 3.4375 10.3698 3.16406 11.125 3.16406C11.8802 3.16406 12.5443 3.4375 13.1172 3.98438L19.0156 9.88281C19.5625 10.4557 19.8359 11.1198 19.8359 11.875C19.8359 12.6302 19.5625 13.2943 19.0156 13.8672L11.5938 21.2891C10.8125 22.0443 9.92708 22.4219 8.9375 22.4219C7.94792 22.4219 7.0625 22.0443 6.28125 21.2891L1.71094 16.7188C0.981771 15.9375 0.617188 15.0521 0.617188 14.0625C0.617188 13.0729 0.981771 12.1875 1.71094 11.4062L5.5 7.57812L2.02344 4.10156C1.65885 3.65885 1.65885 3.21615 2.02344 2.77344ZM9.52344 11.5625L6.82812 8.90625L3.03906 12.7344C2.7526 13.0208 2.57031 13.3594 2.49219 13.75H16.4766L17.6875 12.5C18.0521 12.0833 18.0521 11.6536 17.6875 11.2109L11.75 5.3125C11.3333 4.94792 10.9036 4.94792 10.4609 5.3125L8.15625 7.57812L10.8125 10.2734C11.2031 10.7161 11.2031 11.1458 10.8125 11.5625C10.3958 11.9531 9.96615 11.9531 9.52344 11.5625ZM18 20C18.026 19.4531 18.2734 18.763 18.7422 17.9297C19.1849 17.0964 19.6016 16.3672 19.9922 15.7422C20.1224 15.5599 20.2917 15.4688 20.5 15.4688C20.7083 15.4688 20.8776 15.5599 21.0078 15.7422C21.3984 16.3672 21.8151 17.0964 22.2578 17.9297C22.7266 18.763 22.974 19.4531 23 20C22.974 20.7031 22.7266 21.2891 22.2578 21.7578C21.7891 22.2266 21.2031 22.474 20.5 22.5C19.7969 22.474 19.2109 22.2266 18.7422 21.7578C18.2734 21.2891 18.026 20.7031 18 20Z" />
        </svg>
    </defs>
</svg>
